<svg width="35" height="20" viewBox="0 0 35 20" fill="none" xmlns="http://www.w3.org/2000/svg"><g clip-path="url(#clip0)"><path fill-rule="evenodd" clip-rule="evenodd" d="M2.902 0a.477.477 0 0 0-.478.476c.24 6.831 5.65 12.351 12.454 12.802.298.02.597.007.9.007.967 0 1.972-.17 2.88-.369a6.505 6.505 0 0 0 5.115-6.38 6.598 6.598 0 0 0-.248-1.782A6.56 6.56 0 0 0 17.21 0a6.563 6.563 0 0 0-6.316 4.754 6.561 6.561 0 0 0 3.697 4.21 3.543 3.543 0 0 1-.96-2.428 3.573 3.573 0 0 1 3.58-3.565 3.573 3.573 0 0 1 3.579 3.565c0 .938-.365 1.791-.96 2.429a3.583 3.583 0 0 1-2.62 1.135 7.163 7.163 0 0 1-6.935-5.347A7.14 7.14 0 0 1 10.48.532l.04-.104A.356.356 0 0 0 10.17 0H2.903" fill="#FFCD33"/><path fill-rule="evenodd" clip-rule="evenodd" d="M27.01.36c.224.833.343 1.708.343 2.61 0 3.055-1.362 5.793-3.513 7.646-.538.405-.997.806-1.895 1.281 1.628-1.53 2.424-3.324 2.424-5.36 0-.617-.077-1.215-.225-1.784a7.1 7.1 0 0 0 .225-1.782c0-.878-.159-1.719-.45-2.496A.358.358 0 0 1 24.258 0h2.29a.49.49 0 0 1 .462.36" fill="#FFCD33"/><path d="M0 17.252c0 1.229.725 1.92 1.86 1.92.563 0 .969-.156 1.256-.367v-.687h-.368c-.184.178-.417.33-.822.33-.569 0-.866-.368-.866-1.233 0-.8.34-1.185.914-1.185.34 0 .568.119.709.249h.4v-.72c-.281-.162-.605-.27-1.136-.27C.78 15.289 0 16.014 0 17.252zm2.623-2.646l-.497.542H1.47l-.476-.542v-.205h.525l.303.205.297-.205h.503v.205zM4.261 17.913c.05.481.276.605.67.605.32 0 .558-.092.726-.21h.302v.578c-.248.14-.584.281-1.178.281-.99 0-1.504-.551-1.504-1.45 0-.913.595-1.487 1.455-1.487.887 0 1.341.47 1.341 1.434 0 .113-.01.216-.01.248H4.26zm.006-.51h.887c-.016-.437-.163-.577-.422-.577-.222 0-.411.113-.465.578zM6.32 18.934v-.637h.33c.114.102.352.21.66.21.26 0 .422-.06.422-.205 0-.152-.097-.201-.493-.254-.605-.076-.946-.287-.946-.882 0-.622.487-.93 1.201-.93.454 0 .72.075.963.189v.627h-.308a1.127 1.127 0 0 0-.628-.173c-.27 0-.373.07-.373.206 0 .119.124.178.487.221.665.081.984.281.984.888 0 .605-.4.968-1.27.968-.499 0-.797-.108-1.029-.227zM9.854 17.333l.887-1.06h.812v.233l-.785.892.893 1.493v.233h-.914l-.66-1.11-.233.255v.855H8.88v-3.786h.617c.298 0 .357.075.357.508v1.487zM13.45 18.853c-.2.222-.465.309-.816.309-.503 0-.903-.287-.903-.85 0-.6.46-.887 1.12-.887.216 0 .383.022.546.055v-.195c0-.249-.13-.362-.482-.362-.28 0-.513.08-.676.189h-.292v-.655c.265-.113.649-.227 1.158-.227.848 0 1.265.281 1.265.984v1.91h-.53c-.227 0-.335-.081-.39-.27zm-.053-.919a1.941 1.941 0 0 0-.32-.027c-.26 0-.421.102-.421.34 0 .244.151.347.362.347.146 0 .276-.07.379-.157v-.503zm-.58-1.845v-.178l.18-.59h.935v.233l-.546.535h-.568zM17.023 18.897V20h-.973v-3.727h.676c.147 0 .233.054.271.308.21-.2.487-.35.876-.35.54 0 1.077.35 1.077 1.39 0 1.086-.595 1.476-1.228 1.476-.309 0-.53-.07-.699-.2zm0-1.85v1.309a.66.66 0 0 0 .396.114c.297 0 .546-.136.546-.763 0-.612-.238-.752-.53-.752-.119 0-.281.038-.412.092zM19.165 17.712c0-.914.66-1.482 1.52-1.482.854 0 1.514.568 1.514 1.482 0 .909-.66 1.455-1.514 1.455-.86 0-1.52-.546-1.52-1.455zm2.05.011c0-.568-.217-.828-.53-.828-.32 0-.536.26-.536.828 0 .563.217.806.536.806.313 0 .53-.243.53-.806M22.404 18.934v-.637h.33c.114.102.352.21.66.21.259 0 .421-.06.421-.205 0-.152-.096-.201-.492-.254-.606-.076-.946-.287-.946-.882 0-.622.487-.93 1.2-.93.455 0 .72.075.963.189v.627h-.308a1.125 1.125 0 0 0-.627-.173c-.271 0-.373.07-.373.206 0 .119.123.178.487.221.665.081.984.281.984.888 0 .605-.4.968-1.271.968-.498 0-.796-.108-1.028-.227zm1.97-3.407l-.499.563h-.655l-.475-.563v-.206h.525l.302.228.298-.228h.503v.206zM24.831 16.273h.309v-.724h.974v.724h.53v.628h-.53V18.2c0 .255.097.336.352.336h.188v.562a1.96 1.96 0 0 1-.557.076c-.584 0-.957-.205-.957-.828v-1.444h-.309v-.628zM28.57 18.853c-.201.222-.466.309-.818.309-.502 0-.903-.287-.903-.85 0-.6.46-.887 1.12-.887.215 0 .383.022.546.055v-.195c0-.249-.13-.362-.482-.362-.281 0-.514.08-.676.189h-.292v-.655a2.91 2.91 0 0 1 1.158-.227c.85 0 1.265.281 1.265.984v1.91h-.53c-.227 0-.335-.081-.389-.27zm-.055-.416v-.503a1.934 1.934 0 0 0-.32-.027c-.259 0-.42.102-.42.34 0 .244.15.347.361.347.146 0 .276-.07.379-.157" fill="#1F357A"/></g><defs><clipPath id="clip0"><path fill="#fff" d="M0 0h35v20H0z"/></clipPath></defs></svg>