<svg width="35" height="20" viewBox="0 0 35 20" fill="none" xmlns="http://www.w3.org/2000/svg">
    <g clip-path="url(#clip0)" fill-rule="evenodd" clip-rule="evenodd">
        <path d="M22.521 14.601c-.637.178-1.467.252-2.178.252-1.852 0-3.067-.963-3.067-2.726 0-1.675 1.141-2.756 2.8-2.756.37 0 .77.044 1.008.163v-2.43h1.437v7.497zm-1.437-3.823c-.222-.103-.534-.162-.89-.162-.873 0-1.451.533-1.451 1.466 0 .993.622 1.556 1.645 1.556.177 0 .459 0 .696-.06v-2.8zm13.246 3.823c-.637.178-1.467.252-2.193.252-1.837 0-3.067-.963-3.067-2.726 0-1.675 1.141-2.756 2.8-2.756.386 0 .77.044 1.008.163v-2.43h1.452v7.497zm-1.452-3.823c-.222-.103-.519-.162-.874-.162-.89 0-1.467.533-1.467 1.466 0 .993.637 1.556 1.66 1.556.177 0 .444 0 .681-.06v-2.8zm-8.09 0c.237-.103.578-.133.86-.133.889 0 1.496.504 1.496 1.408 0 1.066-.682 1.555-1.585 1.57v1.23h.074c1.867 0 2.978-1.022 2.978-2.845 0-1.66-1.186-2.637-2.934-2.637-.889 0-1.763.207-2.34.444v7.038h1.451v-6.075z"
              fill="#3F3F42"/>
        <path d="M11.972 5.948l.237.267.133-.074-.37-.193z" fill="#DC0032"/>
        <path d="M11.616 5.756l.46.533.162-.089-.177-.207-.445-.237z" fill="#DC0032"/>
        <path d="M11.246 5.563l.696.8.163-.088-.4-.474-.46-.238z" fill="#DC0032"/>
        <path d="M10.89 5.37l.919 1.067.163-.088-.637-.741-.445-.237zm1.763 1.882l-.103.06.103.118v-.178z"
              fill="#DC0032"/>
        <path d="M10.534 5.178l1.141 1.334.163-.09-.86-1.007-.444-.237zm2.06 2.104l-.163.104.222.267V7.37l-.06-.089z"
              fill="#DC0032"/>
        <path d="M10.164 4.985l1.378 1.6.178-.088-1.097-1.275-.459-.237zm2.297 2.371l-.163.104.355.415v-.282l-.192-.237z"
              fill="#DC0032"/>
        <path d="M9.809 4.793l1.615 1.867.163-.089-1.334-1.541-.444-.237zm2.518 2.652l-.163.089.49.578V7.83l-.327-.385z"
              fill="#DC0032"/>
        <path d="M9.453 4.6l1.837 2.134.163-.09-1.556-1.807-.444-.237zm2.74 2.919l-.162.089.622.726v-.282l-.46-.533z"
              fill="#DC0032"/>
        <path d="M9.083 4.408l2.074 2.4.163-.089-1.778-2.074-.46-.237zm2.978 3.185l-.163.09.755.873v-.281l-.592-.682z"
              fill="#DC0032"/>
        <path d="M8.727 4.215l2.297 2.682.163-.104-2.015-2.341-.445-.237zm3.2 3.452l-.163.089.89 1.037v-.281l-.727-.845z"
              fill="#DC0032"/>
        <path d="M8.356 4.022l2.534 2.949.163-.104L8.816 4.26l-.46-.238zm3.453 3.72l-.178.088 1.022 1.186v-.282l-.844-.993z"
              fill="#DC0032"/>
        <path d="M8.001 3.83l2.756 3.215.178-.104L8.46 4.067l-.459-.237zm3.675 3.985l-.164.09 1.141 1.347v-.296l-.978-1.14z"
              fill="#DC0032"/>
        <path d="M7.645 3.637l2.993 3.482.163-.104-2.711-3.14-.445-.238zm3.897 4.253l-.163.088 1.274 1.497v-.282L11.542 7.89z"
              fill="#DC0032"/>
        <path d="M7.275 3.43l3.23 3.763.163-.104-2.934-3.407-.46-.252zm4.134 4.534l-.163.088 1.407 1.645v-.281L11.41 7.964z"
              fill="#DC0032"/>
        <path d="M6.92 3.237l3.452 4.03.163-.089-3.156-3.69-.46-.251zm4.355 4.8l-.162.09 1.54 1.807v-.296l-1.378-1.6z"
              fill="#DC0032"/>
        <path d="M6.564 3.06l3.674 4.281.163-.089-3.393-3.956-.444-.237zm4.578 5.052l-.163.088 1.674 1.956v-.281l-1.511-1.763z"
              fill="#DC0032"/>
        <path d="M6.327 3l3.778 4.415.163-.089-3.615-4.222-.09-.045A.435.435 0 0 0 6.328 3zm4.682 5.186l-.163.089 1.807 2.104v-.282L11.01 8.186z"
              fill="#DC0032"/>
        <path d="M6.327 3c-.06 0-.119.015-.178.03l3.823 4.46.177-.09L6.371 3h-.044zm4.563 5.26l-.163.089 1.926 2.267v-.297L10.89 8.26z"
              fill="#DC0032"/>
        <path d="M6.193 3.015c-.03.014-.074.03-.089.044l-.089.045 3.838 4.46.163-.09-3.823-4.46zm4.564 5.319l-.163.104 2.06 2.4v-.282l-1.897-2.222z"
              fill="#DC0032"/>
        <path d="M6.045 3.074l-.163.09L9.72 7.637l.163-.09-3.838-4.474zm4.578 5.334l-.163.104 2.193 2.548v-.281l-2.03-2.37z"
              fill="#DC0032"/>
        <path d="M5.912 3.148l-.163.089L9.586 7.71l.163-.088-3.837-4.475zm4.578 5.334l-.163.104 2.326 2.711v-.282L10.49 8.482z"
              fill="#DC0032"/>
        <path d="M5.778 3.222l-.163.09 3.838 4.474.163-.09-3.838-4.474zm4.579 5.334l-.163.104 2.46 2.86v-.282l-2.297-2.682z"
              fill="#DC0032"/>
        <path d="M5.645 3.296l-.163.09L9.32 7.86l.163-.089-3.838-4.475zm4.579 5.334l-.164.104 2.593 3.008v-.282l-2.43-2.83z"
              fill="#DC0032"/>
        <path d="M5.512 3.37l-.163.09 3.837 4.474.163-.089-3.837-4.474zm4.593 5.335l-.163.103 2.711 3.171v-.281l-2.548-2.993z"
              fill="#DC0032"/>
        <path d="M5.378 3.43l-.163.103 3.853 4.475.163-.089-3.853-4.49zm4.593 5.363l-.163.09 2.845 3.318v-.281L9.971 8.793z"
              fill="#DC0032"/>
        <path d="M5.245 3.504l-.163.089 3.852 4.49.163-.09-3.852-4.49zm4.593 5.364l-.163.088 2.978 3.482v-.296L9.838 8.868z"
              fill="#DC0032"/>
        <path d="M5.112 3.578l-.163.089L8.8 8.17l.163-.104-3.852-4.49zM9.705 8.94l-.163.09 3.111 3.63v-.282L9.705 8.94z"
              fill="#DC0032"/>
        <path d="M4.978 3.652l-.163.089 3.853 4.504.163-.104-3.853-4.49zm4.594 5.363l-.163.09 3.244 3.778V12.6L9.572 9.015z"
              fill="#DC0032"/>
        <path d="M4.845 3.726l-.163.089 3.852 4.504.163-.104-3.852-4.489zM9.438 9.09l-.163.089 3.378 3.94v-.296L9.438 9.09z"
              fill="#DC0032"/>
        <path d="M4.712 3.8l-.163.09L8.4 8.392l.163-.103L4.712 3.8zM9.32 9.164l-.163.089 3.496 4.09v-.282L9.32 9.164z"
              fill="#DC0032"/>
        <path d="M4.578 3.86l-.178.088 3.882 4.52.163-.104-3.867-4.505zm4.608 5.378l-.163.089 3.63 4.237v-.281L9.186 9.238z"
              fill="#DC0032"/>
        <path d="M4.445 3.934l-.178.088 3.897 4.534a.116.116 0 0 1 .06-.059l.088-.06-3.867-4.503zm4.608 5.378l-.163.089 3.734 4.356a.43.43 0 0 0 .03-.133v-.119L9.052 9.312z"
              fill="#DC0032"/>
        <path d="M4.312 4.007l-.178.09 3.985 4.637v-.06c0-.044.03-.103.06-.148L4.312 4.007zM8.92 9.386L8.8 9.46c-.015 0-.03.015-.044.015l3.793 4.43a.501.501 0 0 0 .088-.178L8.92 9.386z"
              fill="#DC0032"/>
        <path d="M4.178 4.082L4 4.17l4.12 4.801v-.296L4.177 4.082zM8.505 9.4l3.94 4.608c.045-.03.09-.09.134-.134L8.786 9.46a.253.253 0 0 1-.207 0l-.074-.06z"
              fill="#DC0032"/>
        <path d="M4.045 4.156l-.178.089 8.446 9.838.118-.06.045-.044L8.594 9.46h-.015l-.34-.207c-.03-.015-.045-.045-.075-.074-.03-.045-.03-.075-.044-.104v-.163L4.045 4.156z"
              fill="#DC0032"/>
        <path d="M3.912 4.23l-.178.089 8.445 9.838.163-.089-8.43-9.838z" fill="#DC0032"/>
        <path d="M3.778 4.29l-.178.088 8.46 9.853.164-.089L3.778 4.29z" fill="#DC0032"/>
        <path d="M3.645 4.363l-.178.09 8.46 9.852.163-.089-8.445-9.853z" fill="#DC0032"/>
        <path d="M3.512 4.437l-.178.089 8.46 9.853.163-.089-8.445-9.853z" fill="#DC0032"/>
        <path d="M3.363 4.511l-.163.09 8.46 9.867.164-.104-8.46-9.853z" fill="#DC0032"/>
        <path d="M3.23 4.585l-.163.09 8.46 9.867.163-.104-8.46-9.853z" fill="#DC0032"/>
        <path d="M3.097 4.66l-.163.089 8.475 9.867.163-.103L3.097 4.66z" fill="#DC0032"/>
        <path d="M2.963 4.719l-.163.089 8.475 9.882.163-.103-8.475-9.868z" fill="#DC0032"/>
        <path d="M2.83 4.793l-.163.089 8.475 9.883.163-.09L2.83 4.794z" fill="#DC0032"/>
        <path d="M2.697 4.867l-.163.089 4.119 4.8.133.09c.06.029.119.103.119.177v.015l4.104 4.8.163-.089-8.475-9.882z"
              fill="#DC0032"/>
        <path d="M2.563 4.94l-.163.09 3.868 4.519.488.267L2.563 4.94zM6.89 9.98c0 .014.015.03.015.044v.252l3.97 4.637.163-.088L6.89 9.979z"
              fill="#DC0032"/>
        <path d="M2.43 5.015l-.163.089 3.615 4.223.489.266L2.43 5.015zm4.474 5.2v.282l3.853 4.49.163-.09-4.016-4.681z"
              fill="#DC0032"/>
        <path d="M2.297 5.089l-.163.089 3.378 3.926.474.267-3.69-4.282zm4.607 5.349v.296l3.72 4.326.162-.088-3.882-4.534z"
              fill="#DC0032"/>
        <path d="M2.163 5.148L2 5.238l3.127 3.644.474.282-3.438-4.016zm4.742 5.527v.281l3.585 4.179.163-.09-3.748-4.37z"
              fill="#DC0032"/>
        <path d="M2.03 5.223l-.163.089L4.74 8.66l.474.282-3.185-3.72zm4.875 5.674v.282l3.452 4.03.163-.089-3.615-4.223z"
              fill="#DC0032"/>
        <path d="M1.897 5.296l-.163.09 2.622 3.066.474.267-2.933-3.423zm5.008 5.823v.297l3.318 3.882.163-.104-3.481-4.075z"
              fill="#DC0032"/>
        <path d="M1.763 5.37l-.163.09 2.37 2.77.475.267L1.763 5.37zm5.141 5.987v.281l3.2 3.734.164-.104-3.364-3.912z"
              fill="#DC0032"/>
        <path d="M1.63 5.445l-.163.089 2.119 2.474.488.267-2.444-2.83zm5.274 6.134v.281l3.067 3.586.163-.104-3.23-3.763z"
              fill="#DC0032"/>
        <path d="M1.496 5.519l-.163.089L3.2 7.786l.49.281L1.495 5.52zm3.882 4.8l.386.445v-.163c0-.03-.03-.074-.06-.089l-.326-.192zm1.527 1.482v.297l2.933 3.422.163-.104-3.096-3.615z"
              fill="#DB0032"/>
        <path d="M1.363 5.578l-.163.089 1.615 1.897.49.281-1.942-2.267zm3.63 4.52l.77.888v-.281l-.28-.326-.49-.282zm1.912 1.94v.282l2.8 3.274.163-.089-2.963-3.467z"
              fill="#DC0032"/>
        <path d="M1.23 5.652l-.163.09 1.378 1.614.474.267-1.69-1.97zM4.608 9.89l1.155 1.333v-.281l-.666-.785-.49-.267zm2.296 2.37v.282l2.667 3.126.163-.089-2.83-3.319z"
              fill="#DC0032"/>
        <path d="M1.096 5.726l-.163.089L2.06 7.134l.475.266-1.438-1.674zm3.141 3.941l1.527 1.778v-.281l-1.052-1.23-.475-.267zm2.667 2.83v.282l2.549 2.963.163-.089-2.712-3.156z"
              fill="#DC0032"/>
        <path d="M.963 5.8L.8 5.89l.874 1.022.474.266L.963 5.8zm2.89 3.645l1.91 2.223v-.282l-1.437-1.66-.474-.28zm3.051 3.275V13l2.416 2.815.163-.089-2.579-3.007z"
              fill="#DC0032"/>
        <path d="M.83 5.875l-.163.088.622.726.474.282L.83 5.875zm2.637 3.348l2.297 2.682v-.282L3.94 9.505l-.474-.282zm3.438 3.719v.281l2.281 2.667.163-.088-2.444-2.86z"
              fill="#DC0032"/>
        <path d="M.696 5.948l-.163.09.37.429.49.281-.697-.8zm2.386 3.067l2.682 3.112v-.282L3.556 9.282l-.474-.267zm3.823 4.164v.281l2.148 2.504.163-.089-2.311-2.696z"
              fill="#DC0032"/>
        <path d="M.563 6.008l-.178.089.134.163.489.266-.445-.518zm2.134 2.785l3.067 3.571v-.296L3.186 9.06l-.49-.267zm4.208 4.608v.282l2.015 2.37.163-.103L6.905 13.4z"
              fill="#DC0032"/>
        <path d="M.43 6.082l-.104.06.296.162-.192-.222zm1.881 2.49l3.453 4.014v-.281L2.8 8.853l-.489-.282zm4.593 5.052v.296l1.897 2.208.163-.104-2.06-2.4z"
              fill="#DC0032"/>
        <path d="M1.94 8.349l3.824 4.46v-.282L2.415 8.63l-.474-.281zm4.964 5.511v.282l1.764 2.06.163-.104-1.927-2.238z"
              fill="#DC0032"/>
        <path d="M1.556 8.141l4.208 4.904v-.296L2.03 8.408l-.474-.267zm5.348 5.942v.281l1.63 1.911.163-.103-1.793-2.09z"
              fill="#DC0032"/>
        <path d="M1.17 7.919l4.594 5.349v-.282l-4.12-4.8-.474-.267zm5.734 6.386v.296l1.497 1.749.163-.09-1.66-1.955z"
              fill="#DC0032"/>
        <path d="M.785 7.697l4.979 5.793v-.281L1.26 7.979l-.475-.282zm6.12 6.845v.282l1.363 1.6.163-.09-1.526-1.792z"
              fill="#DB0032"/>
        <path d="M.4 7.475l5.364 6.252v-.281l-4.89-5.69L.4 7.475zm6.505 7.29v.28l1.244 1.453.163-.089-1.407-1.645z"
              fill="#DA0032"/>
        <path d="M.015 7.267l5.749 6.682v-.281L.504 7.534l-.49-.267zm6.89 7.72v.296l1.11 1.289.164-.089-1.274-1.497z"
              fill="#D90032"/>
        <path d="M0 7.252v.208l5.764 6.712v-.282L.119 7.312 0 7.252zm6.905 7.972v.178c0 .03-.015.059-.03.074l1.007 1.17.163-.089-1.14-1.333z"
              fill="#D80032"/>
        <path d="M0 7.4v.297l5.764 6.712v-.282L0 7.4zm6.89 8.046c-.015.059-.06.118-.104.133l-.015.015.978 1.126.163-.089-1.022-1.185z"
              fill="#D70032"/>
        <path d="M0 7.638v.281l5.764 6.712v-.281L0 7.638zm6.8 7.927c0 .014 0 .014-.014.014l-.148.09.978 1.125.163-.089-.978-1.14z"
              fill="#D60032"/>
        <path d="M0 7.86v.281l5.764 6.712v-.281L0 7.86zm6.682 7.779l-.178.103.993 1.141.163-.104-.978-1.14z"
              fill="#D50032"/>
        <path d="M0 8.097v.281l5.764 6.712v-.281L0 8.097zm6.549 7.615l-.104.06c-.03.014-.06.014-.089.014l1.008 1.171.163-.104-.978-1.14z"
              fill="#D40032"/>
        <path d="M0 8.32v.28l5.764 6.713v-.282L0 8.32zm6.09 7.393l1.14 1.319.163-.104-.992-1.141c-.015 0-.045.015-.06.015h-.014a.214.214 0 0 1-.104-.03l-.133-.06z"
              fill="#D30032"/>
        <path d="M0 8.541v.297l7.097 8.268.163-.104-1.067-1.245-.326-.178a.206.206 0 0 1-.103-.177v-.149L0 8.541z"
              fill="#D20032"/>
        <path d="M0 8.778v.282l6.964 8.12.163-.09L0 8.778z" fill="#D10032"/>
        <path d="M0 9.001v.281l6.83 7.972.163-.09L0 9.002z" fill="#D00032"/>
        <path d="M0 9.223v.296l6.712 7.809.163-.09L0 9.224z" fill="#CF0032"/>
        <path d="M0 9.46v.281l6.579 7.66.163-.088L0 9.46z" fill="#CE0032"/>
        <path d="M0 9.682v.282l6.43 7.497.134-.045.044-.03L0 9.683z" fill="#CD0032"/>
        <path d="M0 9.904v.297l6.238 7.26h.089c.044 0 .089 0 .133-.015L0 9.904z" fill="#CC0032"/>
        <path d="M0 10.142v.281l5.897 6.875.207.119c.045.03.119.044.178.044L0 10.141z" fill="#CB0032"/>
        <path d="M0 10.364v.281l5.512 6.43.489.282L0 10.364z" fill="#CA0032"/>
        <path d="M0 10.601v.282l5.127 5.97.488.282L0 10.601z" fill="#C90032"/>
        <path d="M0 10.823v.282l4.741 5.526.474.282L0 10.823z" fill="#C80033"/>
        <path d="M0 11.045v.282l4.356 5.082.474.282L0 11.044z" fill="#C70033"/>
        <path d="M0 11.282v.282l3.956 4.608.489.281L0 11.283z" fill="#C60033"/>
        <path d="M0 11.505v.281l3.57 4.164.49.281L0 11.505z" fill="#C50033"/>
        <path d="M0 11.727v.282l3.186 3.718.489.282L0 11.727z" fill="#C40033"/>
        <path d="M0 11.964v.281l2.8 3.26.49.281L0 11.965z" fill="#C30033"/>
        <path d="M0 12.186v.281l2.415 2.816.489.281L0 12.186z" fill="#C20033"/>
        <path d="M0 12.409v.296l2.03 2.356.474.281L0 12.41z" fill="#C10033"/>
        <path d="M0 12.646v.281l1.63 1.911.489.282L0 12.646z" fill="#C00033"/>
        <path d="M0 12.868v.281l1.245 1.467.489.267L0 12.868z" fill="#BF0033"/>
        <path d="M0 13.09v.296l.86.993.488.281L0 13.09z" fill="#BE0033"/>
        <path d="M0 13.327v.282l.474.548.49.281L0 13.328z" fill="#BD0033"/>
        <path d="M0 13.55v.073c0 .149.104.326.222.4l.356.193L0 13.55z" fill="#BC0033"/>
        <path d="M.089 13.89c.03.03.044.06.074.074l-.074-.074z" fill="#B03"/>
    </g>
    <defs>
        <clipPath id="clip0">
            <path fill="#fff" transform="translate(0 3)" d="M0 0h35v14.7H0z"/>
        </clipPath>
    </defs>
</svg>