<svg width="35" height="20" viewBox="0 0 35 20" fill="none" xmlns="http://www.w3.org/2000/svg"><path fill-rule="evenodd" clip-rule="evenodd" d="M.543 11.388h6.173l.492-1.606H1.035l-.492 1.606zm.59-1.927h6.174l.374-1.223H1.508l-.374 1.223zm.454-1.482H7.76l.324-1.057H1.911L1.587 7.98zm.41-1.337H8.17l.184-.6H2.18l-.184.6zm5.733 4.694L9.302 6.01 14.678 6c1.82.093 3.102 1.596 1.49 2.756-1.148.646-2.497.805-3.92.788h-1.24l-.559 1.792H7.73zm3.65-2.953l.33-1.202h1.8c.496-.003.73.187.703.57-.089.372-.456.564-1.013.632h-1.82zm5.755 2.953l1.572-5.326L24.084 6c1.82.093 3.102 1.596 1.489 2.756-1.147.646-2.497.805-3.92.788h-1.24l-.558 1.792h-2.72zm3.65-2.953l.331-1.202h1.8c.496-.003.73.187.703.57-.09.372-.456.564-1.014.632h-1.82zm5.406 2.896l7.055-.002.455-1.268-4.293-.002 1.118-3.869-2.848-.003-1.487 5.144zM.38 12.951h.325c.365 0 .494-.332.518-.464.052-.287-.073-.467-.336-.467h-.62L0 13.477h.284l.096-.526zm.046-.251l.078-.428H.73c.176 0 .239.058.213.2-.012.066-.042.228-.253.228H.426zm.835.777h.277l.105-.57h.293c.21 0 .207.077.17.276-.027.15-.03.225-.023.294h.314l.007-.038c-.056-.025-.047-.077-.008-.29.05-.272-.002-.317-.104-.37a.44.44 0 0 0 .273-.347c.023-.126.01-.412-.351-.412h-.686l-.267 1.457zm.427-.816l.071-.39h.354c.166 0 .177.114.163.191-.026.145-.108.2-.255.2h-.333zm.972.088c-.125.684.332.767.512.767s.667-.083.793-.768c.125-.683-.332-.767-.512-.767s-.667.084-.793.768zm.284 0c.075-.408.309-.51.462-.51.153 0 .35.102.275.51-.075.408-.309.51-.462.51-.153 0-.35-.102-.275-.51zm1.51.115h.597l.047-.258h-.597l.06-.328h.682l.048-.258h-.966l-.267 1.457h.283l.113-.613zm2.005-.844H5.46l-.267 1.457h1.03l.047-.258H5.52l.07-.377h.66l.048-.258h-.662l.056-.306h.72l.048-.258zm.008 1.009c-.033.18-.004.487.49.487.12 0 .543-.039.623-.477.048-.262-.107-.343-.283-.392l-.315-.087c-.054-.014-.137-.039-.116-.152.024-.132.16-.175.268-.175.248 0 .242.154.238.22h.272c.03-.18-.027-.472-.443-.472-.44 0-.574.287-.604.449-.058.32.143.373.353.428l.139.037c.137.036.233.067.212.18-.028.155-.184.19-.318.19-.247 0-.257-.155-.244-.236h-.272zm1.26 0c-.033.18-.004.487.491.487.12 0 .542-.039.623-.477.048-.262-.108-.343-.284-.392l-.315-.087c-.054-.014-.136-.039-.115-.152.024-.132.16-.175.268-.175.247 0 .242.154.238.22h.272c.03-.18-.027-.472-.443-.472-.44 0-.574.287-.604.449-.059.32.143.373.352.428l.14.037c.136.036.233.067.212.18-.028.155-.184.19-.318.19-.248 0-.257-.155-.244-.236h-.273zm1.777-1.01H9.22l-.267 1.458h.284l.267-1.457zm.07.73c-.125.684.332.767.512.767s.667-.083.793-.768c.125-.683-.333-.767-.512-.767-.18 0-.667.084-.793.768zm.284 0c.074-.408.309-.51.462-.51.153 0 .35.102.275.51-.075.408-.309.51-.462.51-.153 0-.35-.102-.275-.51zm2.023.286h-.004l-.353-1.015h-.298l-.268 1.457h.265l.19-1.039h.004l.364 1.04h.283l.267-1.458h-.264l-.186 1.015zm.798.142h.5l.032.3h.309l-.212-1.457h-.327l-.75 1.457h.298l.15-.3zm.4-.828h.005l.062.576H12.8l.28-.576zm1.172-.33h-.283l-.267 1.458h.958l.049-.264h-.675l.218-1.193zm1.51.932h.325c.365 0 .494-.332.518-.464.053-.287-.073-.467-.336-.467h-.62l-.267 1.457h.284l.096-.526zm.046-.251l.079-.428h.225c.175 0 .238.058.212.2-.012.066-.041.228-.253.228h-.263zm1.177.477h.501l.032.3h.308l-.211-1.457h-.327l-.75 1.457h.298l.15-.3zm.401-.828h.004l.063.576h-.346l.28-.576zm.622 1.128h.277l.105-.57h.293c.21 0 .207.077.17.276-.027.15-.03.225-.023.294h.313l.008-.038c-.056-.025-.047-.077-.008-.29.05-.272-.002-.317-.104-.37a.44.44 0 0 0 .273-.347c.023-.126.01-.412-.352-.412h-.686l-.266 1.457zm.427-.816l.071-.39h.354c.166 0 .177.114.163.191-.026.145-.108.2-.255.2h-.333zm2.228-.164c.024-.215-.085-.516-.491-.516-.35 0-.672.26-.765.77-.092.503.119.765.48.765.34 0 .573-.221.688-.538h-.284c-.066.179-.193.274-.35.274-.24 0-.294-.236-.246-.497.076-.412.294-.51.43-.51.235 0 .248.165.255.252h.283zm1.3-.477h-.997l-.267 1.457h1.03l.047-.258h-.752l.07-.377h.66l.048-.258h-.662l.057-.306h.72l.047-.258zm.547 0h-.283l-.267 1.457h.958l.048-.264h-.674l.218-1.193zm1.68 0h-.283l-.267 1.457h.958l.049-.264h-.675l.218-1.193zm.678.729c-.126.684.332.767.511.767.18 0 .668-.083.793-.768.125-.683-.332-.767-.512-.767s-.667.084-.792.768zm.283 0c.075-.408.31-.51.462-.51.153 0 .35.102.275.51-.074.408-.308.51-.462.51-.153 0-.35-.102-.275-.51zm1.85.188h.316c-.113.295-.325.321-.388.321-.193 0-.376-.103-.303-.501.068-.374.283-.524.485-.524.2 0 .264.183.253.24h.284c.021-.201-.09-.492-.506-.492-.457-.002-.732.374-.804.772-.094.511.156.763.483.763.248 0 .376-.132.464-.221l-.005.182h.19l.143-.785h-.567l-.045.245zm1.262-.917h-.283l-.267 1.457h.284l.267-1.457zm.01 1.009c-.033.18-.004.487.491.487.12 0 .542-.039.623-.477.048-.262-.108-.343-.284-.392l-.315-.087c-.054-.014-.136-.039-.115-.152.024-.132.16-.175.268-.175.247 0 .242.154.237.22h.273c.03-.18-.027-.472-.443-.472-.44 0-.574.287-.604.449-.059.32.143.373.352.428l.14.037c.136.036.233.067.212.18-.028.155-.184.19-.318.19-.248 0-.257-.155-.244-.236h-.273zm2.045-.751h.41l.047-.258h-1.103l-.048.258h.41l-.22 1.2h.284l.22-1.2zm.886-.258h-.283l-.267 1.457h.284l.266-1.457zm1.327.477c.024-.215-.085-.516-.492-.516-.35 0-.67.26-.764.77-.092.503.118.765.48.765.34 0 .573-.221.688-.538h-.284c-.066.179-.194.274-.35.274-.24 0-.294-.236-.246-.497.076-.412.294-.51.43-.51.234 0 .248.165.254.252h.284zm1.522-6.283c.542 0 .967.421.947.94-.019.519-.475.94-1.017.94-.542 0-.966-.421-.947-.94.02-.519.475-.94 1.017-.94zm-.007.201c.426 0 .76.331.744.739-.015.408-.373.739-.8.739-.425 0-.76-.331-.744-.739.015-.408.374-.739.8-.739zm-.454 1.243l.09-1.063h.408c.103 0 .176.01.221.03a.2.2 0 0 1 .103.1.315.315 0 0 1 .027.168.33.33 0 0 1-.08.198.325.325 0 0 1-.198.098c.04.027.072.057.096.09.025.032.056.09.095.172l.1.207h-.232l-.12-.231a1.321 1.321 0 0 0-.088-.156.133.133 0 0 0-.055-.044.281.281 0 0 0-.096-.012h-.04l-.037.443h-.194zm.246-.613h.143a.688.688 0 0 0 .175-.013.12.12 0 0 0 .058-.045.161.161 0 0 0 .027-.08.128.128 0 0 0-.019-.086.103.103 0 0 0-.069-.042 1.54 1.54 0 0 0-.14-.004h-.152l-.023.27z" fill="#1C3481"/></svg>