<svg width="35" height="20" viewBox="0 0 35 20" fill="none" xmlns="http://www.w3.org/2000/svg"><path fill-rule="evenodd" clip-rule="evenodd" d="M28.429 4.286L17.714 0 7 4.286v1.428h1.429c0 .195.076.362.228.503a.77.77 0 0 0 .542.212H26.23a.762.762 0 0 0 .541-.212.665.665 0 0 0 .229-.503h1.429V4.286zM12.714 7.143H9.857v8.571H9.2a.762.762 0 0 0-.542.212.665.665 0 0 0-.228.503v.714H27v-.714a.663.663 0 0 0-.229-.503.77.77 0 0 0-.541-.212h-.659V14h-2.857v1.714h-1.428V7.143h-2.857v8.571H17V7.143h-2.857v8.571h-1.429V7.143zm10 1.857h2.857V7.143h-2.857V9zM28.2 18.07a.77.77 0 0 0-.541-.212H7.77a.763.763 0 0 0-.541.212.665.665 0 0 0-.229.502V20h21.429v-1.429a.662.662 0 0 0-.229-.502z" fill="#246589"/><path fill-rule="evenodd" clip-rule="evenodd" d="M29.198 15.5L34 11.505 29.205 7.5l-.002 2.74H22v2.522h7.2l-.002 2.738z" fill="#DC0032"/></svg>