<svg width="35" height="20" viewBox="0 0 35 20" fill="none" xmlns="http://www.w3.org/2000/svg"><path d="M27.15 0c-.508 0-1.254.578-1.557.828l-.73.611a.735.735 0 0 1-.47.16.738.738 0 0 1-.472-.16L23.18.827C22.682.416 21.857 0 21.243 0c-.614 0-1.44.416-1.937.826l-.743.613a.743.743 0 0 1-.474.16.744.744 0 0 1-.474-.16l-.743-.613C16.386.426 15.542 0 14.934 0c-.608 0-1.452.426-1.938.826l-.742.613a.744.744 0 0 1-.475.16.744.744 0 0 1-.475-.16l-.742-.613C10.52.793 9.535 0 8.939 0 8.26 0 8 .787 8 1.461V18.54c0 .673.259 1.46.94 1.46.572 0 1.497-.742 1.597-.825l.756-.614a.753.753 0 0 1 .479-.16.75.75 0 0 1 .478.16l.744.613c.486.4 1.33.826 1.939.826.608 0 1.453-.426 1.938-.826l.743-.613a.744.744 0 0 1 .475-.16c.181 0 .35.057.475.16l.743.613c.485.4 1.33.826 1.937.826.608 0 1.452-.426 1.938-.826l.743-.613a.744.744 0 0 1 .474-.16c.181 0 .35.057.475.16l.743.613c.374.308 1.055.826 1.533.826.56 0 .85-.519.85-1.461V1.46C28 .52 27.71 0 27.15 0zm-3.535 15.023h-4.92v-1.735h4.92v1.735zm0-4.201H12.492V9.178h11.123v1.644zm0-4.11H12.492V4.977h11.123v1.735z" fill="#246589"/></svg>