<?xml version="1.0" encoding="UTF-8" standalone="no"?>
<!DOCTYPE svg PUBLIC "-//W3C//DTD SVG 1.1//EN" "http://www.w3.org/Graphics/SVG/1.1/DTD/svg11.dtd">
<svg width="100%" height="100%" viewBox="0 0 35 20" version="1.1" xmlns="http://www.w3.org/2000/svg"
     xml:space="preserve"
     style="fill-rule:evenodd;clip-rule:evenodd;stroke-linejoin:round;stroke-miterlimit:2;">
    <g transform="matrix(0.750493,0,0,0.750493,0,1.83574)">
        <path d="M35.404,19.92L36.857,19.92L36.857,16.144L39.036,19.921L40.513,19.921L40.513,13.893L39.062,13.893L39.062,17.626L36.95,13.893L35.404,13.893L35.404,19.921L35.404,19.92Z"
              style="fill:rgb(19,80,145);fill-rule:nonzero;"/>
    </g>
    <g transform="matrix(0.750493,0,0,0.750493,0,1.83574)">
        <path d="M43.007,17.432L43.554,15.442L44.113,17.432L43.007,17.432ZM44.672,13.897L42.428,13.893L40.612,19.92L42.316,19.92L42.638,18.745L44.494,18.745L44.824,19.921L46.562,19.921L44.672,13.897Z"
              style="fill:rgb(19,80,145);"/>
    </g>
    <g transform="matrix(0.750493,0,0,0.750493,0,1.83574)">
        <path d="M31.628,19.92L35.13,19.92L35.13,18.683L33.218,18.683L33.218,13.893L31.628,13.893L31.628,19.921L31.628,19.92ZM31.206,15.21L31.206,13.884L28.016,13.884C27.603,13.885 27.264,14.224 27.264,14.637C27.264,14.637 27.264,14.638 27.264,14.638L27.264,19.167C27.264,19.584 27.601,19.922 28.016,19.922L28.021,19.921L31.206,19.921L31.206,18.591L28.77,18.591L28.77,17.581L31.017,17.581L31.017,16.249L28.77,16.249L28.77,15.21L31.206,15.21ZM20.777,19.922L22.368,19.922L22.368,13.895L20.778,13.895L20.778,19.922L20.777,19.922ZM22.976,13.895L22.976,15.248L24.116,15.248L24.116,19.921L25.822,19.921L25.822,15.248L26.972,15.248L26.972,13.895L22.976,13.895Z"
              style="fill:rgb(19,80,145);fill-rule:nonzero;"/>
    </g>
    <g transform="matrix(0.750493,0,0,0.750493,0,1.83574)">
        <path d="M12.262,14.997C13.055,14.997 13.534,15.702 13.534,16.888C13.534,18.065 13.054,18.77 12.262,18.77C11.462,18.77 10.99,18.065 10.99,16.888C10.99,15.702 11.461,14.998 12.262,14.998L12.262,14.997ZM12.262,19.991C13.939,19.991 15.046,18.751 15.046,16.888C15.046,15.015 13.939,13.777 12.262,13.777C10.586,13.777 9.472,15.015 9.472,16.888C9.472,18.752 10.586,19.991 12.262,19.991Z"
              style="fill:rgb(19,80,145);"/>
    </g>
    <g transform="matrix(0.750493,0,0,0.750493,0,1.83574)">
        <path d="M4.922,19.919L6.363,19.919L6.363,17.637C7.621,17.604 9.353,17.748 9.353,15.747C9.353,14.473 8.494,13.887 7.465,13.887L4.922,13.887L4.922,19.919ZM6.944,16.436L6.364,16.436L6.364,15.074L6.989,15.074C7.375,15.074 7.843,15.15 7.843,15.712C7.843,16.368 7.405,16.436 6.943,16.436L6.944,16.436ZM2.386,18.817C2.716,18.806 3.197,18.713 3.182,18.253C3.15,17.354 0.336,17.93 0.26,15.765C0.216,14.501 1.266,13.82 2.363,13.782C3.25,13.75 3.928,14.032 4.502,14.759L3.586,15.515C3.191,15.102 2.959,14.905 2.378,14.927C2.128,14.935 1.755,15.109 1.766,15.423C1.798,16.348 4.631,15.697 4.709,17.893C4.754,19.186 3.797,19.956 2.644,19.997C1.588,20.033 0.642,19.769 0.011,18.815L0.994,18.04C1.392,18.596 1.7,18.84 2.384,18.817L2.386,18.817Z"
              style="fill:rgb(19,80,145);fill-rule:nonzero;"/>
    </g>
    <g transform="matrix(0.750493,0,0,0.750493,0,1.83574)">
        <path d="M16.867,13.479L17.931,13.479L18.858,12.311L17.947,12.311L17.404,12.904L16.859,12.311L15.963,12.311L16.867,13.479ZM16.852,14.996L17.567,14.996C17.948,14.996 18.397,15.101 18.397,15.641C18.397,16.242 17.887,16.285 17.469,16.285C17.263,16.285 17.058,16.276 16.852,16.285L16.852,14.996ZM19.033,17.096C19.586,16.817 19.942,16.331 19.942,15.618C19.942,14.381 19.055,13.878 18.062,13.878L15.368,13.878L15.368,19.922L16.852,19.922L16.852,17.593L17.492,17.593L18.577,19.92L20.346,19.92L19.033,17.096Z"
              style="fill:rgb(19,80,145);"/>
    </g>
    <g transform="matrix(0.750493,0,0,0.750493,0,1.83574)">
        <path d="M16.785,10.072C17.232,10.055 17.882,9.932 17.861,9.312C17.818,8.096 14.018,8.871 13.915,5.95C13.855,4.243 15.274,3.321 16.755,3.27C17.953,3.228 18.871,3.609 19.647,4.592L18.407,5.61C17.875,5.055 17.561,4.79 16.777,4.818C16.439,4.83 15.935,5.065 15.949,5.489C15.993,6.739 19.823,5.859 19.926,8.826C19.988,10.568 18.693,11.61 17.136,11.665C15.708,11.715 14.431,11.358 13.579,10.069L14.905,9.024C15.445,9.774 15.859,10.104 16.785,10.072Z"
              style="fill:rgb(19,80,145);fill-rule:nonzero;"/>
    </g>
    <g transform="matrix(0.750493,0,0,0.750493,0,1.83574)">
        <path d="M25.157,11.568L27.462,11.568L25.182,6.186L27.219,3.433L24.779,3.433L22.611,6.414L22.611,3.434L20.372,3.434L20.372,11.578L22.6,11.578L22.6,9.673L23.73,8.146L25.157,11.568Z"
              style="fill:rgb(19,80,145);"/>
    </g>
    <g transform="matrix(0.750493,0,0,0.750493,0,1.83574)">
        <path d="M13.303,5.217L13.303,3.427L9.003,3.427C8.443,3.427 7.989,3.883 7.989,4.446L7.989,10.55C7.989,11.111 8.443,11.568 9.003,11.568L9.009,11.566L13.303,11.566L13.303,9.773L10.017,9.773L10.017,8.412L13.048,8.412L13.048,6.617L10.018,6.617L10.018,5.217L13.303,5.217ZM1.934,1.297L3.144,1.297L3.878,2.097L4.613,1.297L5.845,1.297L4.59,2.873L3.155,2.873L1.934,1.297ZM3.878,3.267C5.986,3.267 7.252,4.362 7.3,6.229L5.408,6.229C5.276,5.385 4.746,4.915 3.938,4.915C2.844,4.915 2.216,5.867 2.216,7.505C2.216,9.082 2.844,10.01 3.903,10.01C4.793,10.01 5.311,9.443 5.433,8.324L7.408,8.324C7.348,10.431 6.035,11.659 3.843,11.659C1.469,11.66 0,10.056 0,7.47C0,4.88 1.494,3.267 3.878,3.267"
              style="fill:rgb(19,80,145);fill-rule:nonzero;"/>
    </g>
    <g transform="matrix(0.750493,0,0,0.750493,0,1.83574)">
        <path d="M30.547,2.873L31.67,2.873L33.27,1.296L31.553,1.296L30.547,2.873ZM30.696,8.201L31.443,5.515L32.198,8.201L30.696,8.201ZM32.953,3.427L29.922,3.427L27.471,11.567L29.771,11.567L30.217,9.975L32.726,9.975L33.159,11.567L35.507,11.567L32.953,3.427Z"
              style="fill:rgb(19,80,145);"/>
    </g>
    <g transform="matrix(0.750493,0,0,0.750493,0,1.83574)">
        <path d="M36.769,4.91L36.769,8.638L44.226,8.638L44.226,9.139L36.769,9.139L36.769,10.126C36.769,10.926 37.419,11.576 38.222,11.576L45.182,11.576C45.981,11.573 46.636,10.915 46.636,10.116L46.636,6.536L39.179,6.536L39.179,5.98L46.636,5.98L46.636,4.9C46.634,4.106 45.98,3.453 45.186,3.453C45.185,3.453 45.183,3.453 45.182,3.453L38.222,3.453C37.419,3.453 36.769,4.108 36.769,4.91ZM41.715,3.02C40.887,3.02 40.205,2.338 40.205,1.51C40.205,0.682 40.887,0 41.715,0C42.543,0 43.225,0.682 43.225,1.51C43.225,2.338 42.543,3.02 41.715,3.02"
              style="fill:rgb(237,28,36);fill-rule:nonzero;"/>
    </g>
</svg>
