<svg width="35" height="20" viewBox="0 0 35 20" fill="none" xmlns="http://www.w3.org/2000/svg"><path fill-rule="evenodd" clip-rule="evenodd" d="M28.46 0H2.48c-.09.001-.18.002-.27.005a3.91 3.91 0 0 0-.588.051 1.98 1.98 0 0 0-.559.184A1.878 1.878 0 0 0 .056 1.62a3.881 3.881 0 0 0-.051.588c-.003.09-.004.18-.005.27v15.045c.001.09.002.18.005.27.005.195.016.393.051.587.036.197.093.38.184.559a1.872 1.872 0 0 0 .822.82c.179.092.362.15.559.185.194.035.391.046.588.052l.27.003.32.001H28.78l.271-.005c.196-.005.394-.017.588-.051a1.98 1.98 0 0 0 .559-.184 1.869 1.869 0 0 0 .821-.822 1.96 1.96 0 0 0 .184-.558c.035-.194.047-.392.052-.587.002-.09.004-.18.004-.27V2.798v-.32c0-.09-.002-.18-.004-.27a3.886 3.886 0 0 0-.052-.588A1.887 1.887 0 0 0 29.64.056a3.92 3.92 0 0 0-.588-.051 14.42 14.42 0 0 0-.27-.004L28.46 0z" fill="#3C4043"/><path fill-rule="evenodd" clip-rule="evenodd" d="M28.46.667h.316c.085 0 .171.002.257.004.15.004.325.012.488.041.141.026.26.065.374.123a1.207 1.207 0 0 1 .53.53c.058.113.096.23.122.374.029.16.037.336.041.487a47.338 47.338 0 0 1 .005.572v14.404l-.001.318c0 .085-.002.17-.004.255-.004.15-.012.325-.041.488-.026.14-.064.259-.122.373a1.204 1.204 0 0 1-.53.53 1.301 1.301 0 0 1-.373.121c-.166.03-.349.038-.486.042-.086.002-.172.003-.26.003l-.316.001H2.482c-.086 0-.172-.002-.255-.004a3.412 3.412 0 0 1-.488-.041 1.308 1.308 0 0 1-.375-.123 1.197 1.197 0 0 1-.53-.53 1.305 1.305 0 0 1-.121-.374 3.333 3.333 0 0 1-.042-.486 12.87 12.87 0 0 1-.004-.256V2.482c0-.086.002-.171.004-.256.004-.15.012-.325.042-.489.025-.14.064-.26.122-.374a1.205 1.205 0 0 1 .53-.529 1.31 1.31 0 0 1 .374-.122c.163-.029.338-.037.488-.041l.256-.004H28.46z" fill="#FFFFFE"/><path d="M15.05 10.462v2.85h-.89V6.277h2.362a2.1 2.1 0 0 1 1.527.612c.807.763.857 2.048.1 2.873l-.1.1c-.415.4-.924.601-1.527.601H15.05zm0-3.322v2.458h1.494c.332.011.653-.123.88-.365a1.25 1.25 0 0 0-.028-1.745 1.205 1.205 0 0 0-.852-.348H15.05zM20.742 8.341c.659 0 1.179.18 1.56.533.382.354.57.848.57 1.47v2.969h-.852v-.668h-.038c-.371.55-.858.825-1.472.825-.52 0-.962-.157-1.31-.471a1.498 1.498 0 0 1-.526-1.179c0-.5.188-.892.558-1.19.37-.297.869-.443 1.488-.443.531 0 .963.101 1.306.292v-.207c0-.309-.133-.6-.365-.803a1.284 1.284 0 0 0-.858-.33c-.498 0-.89.212-1.178.639l-.785-.5c.42-.622 1.056-.937 1.902-.937zm-1.15 3.496c0 .236.11.455.293.59.2.156.442.24.691.235.377 0 .736-.152 1.002-.42.293-.281.442-.613.442-.994-.276-.224-.664-.337-1.161-.331-.36 0-.664.09-.908.264-.238.174-.36.392-.36.656z" fill="#3C4043"/><path fill-rule="evenodd" clip-rule="evenodd" d="M27.762 8.499l-2.976 6.93h-.918l1.106-2.425L23.021 8.5h.968l1.411 3.456h.017L26.794 8.5h.968z" fill="#3C4043"/><path fill-rule="evenodd" clip-rule="evenodd" d="M11.449 9.845c0-.275-.022-.55-.066-.82H7.626v1.555h2.152c-.088.5-.376.948-.796 1.23v1.01h1.283c.752-.702 1.184-1.74 1.184-2.975z" fill="#4285F4"/><path fill-rule="evenodd" clip-rule="evenodd" d="M7.626 13.796c1.074 0 1.98-.36 2.64-.977l-1.284-1.01c-.36.247-.819.387-1.356.387-1.04 0-1.919-.712-2.234-1.666H4.07v1.043a3.973 3.973 0 0 0 3.556 2.223z" fill="#34A853"/><path fill-rule="evenodd" clip-rule="evenodd" d="M5.392 10.53a2.471 2.471 0 0 1 0-1.549V7.943H4.07a4.057 4.057 0 0 0 0 3.625l1.322-1.038z" fill="#FBBC04"/><path fill-rule="evenodd" clip-rule="evenodd" d="M7.626 7.314a2.127 2.127 0 0 1 1.527.606l1.14-1.156a3.815 3.815 0 0 0-2.667-1.049A3.978 3.978 0 0 0 4.07 7.943l1.322 1.043c.315-.96 1.195-1.672 2.234-1.672z" fill="#EA4335"/></svg>