<svg width="35" height="20" viewBox="0 0 35 20" fill="none" xmlns="http://www.w3.org/2000/svg">
<path d="M13.6222 10.4897V9.89178C13.6257 9.84149 13.6184 9.79103 13.6008 9.74378C13.5833 9.69652 13.5559 9.65354 13.5204 9.61771C13.485 9.58187 13.4423 9.55401 13.3952 9.53597C13.3481 9.51792 13.2978 9.51012 13.2474 9.51307C13.1816 9.50875 13.1158 9.5222 13.0569 9.552C12.998 9.5818 12.9481 9.62687 12.9126 9.68249C12.8802 9.62853 12.8338 9.58431 12.7784 9.5545C12.723 9.52468 12.6605 9.51037 12.5977 9.51307C12.5429 9.5103 12.4883 9.5219 12.4393 9.54672C12.3904 9.57155 12.3488 9.60873 12.3186 9.65459V9.53699H12.1113V10.4897H12.3206V9.96553C12.3162 9.93294 12.319 9.89978 12.3288 9.86841C12.3387 9.83704 12.3553 9.80823 12.3776 9.78405C12.3999 9.75986 12.4272 9.7409 12.4577 9.72851C12.4882 9.71612 12.521 9.71062 12.5538 9.71239C12.6913 9.71239 12.7611 9.80208 12.7611 9.96353V10.4937H12.9704V9.96553C12.9661 9.93298 12.9691 9.89989 12.979 9.8686C12.9889 9.8373 13.0056 9.80857 13.0278 9.78443C13.05 9.76029 13.0773 9.74132 13.1077 9.72887C13.1381 9.71642 13.1708 9.7108 13.2036 9.71239C13.3451 9.71239 13.4129 9.80208 13.4129 9.96353V10.4937L13.6222 10.4897ZM16.7186 9.53699H16.3778V9.24798H16.1685V9.53699H15.9791V9.72634H16.1725V10.1648C16.1725 10.3861 16.2582 10.5176 16.5033 10.5176C16.5949 10.5179 16.6847 10.4924 16.7624 10.4439L16.7026 10.2665C16.6471 10.2997 16.584 10.3182 16.5193 10.3203C16.4196 10.3203 16.3817 10.2565 16.3817 10.1609V9.72634H16.7206L16.7186 9.53699ZM18.4865 9.51307C18.436 9.51158 18.386 9.52376 18.3418 9.54832C18.2976 9.57287 18.2608 9.6089 18.2354 9.65259V9.53699H18.0301V10.4897H18.2374V9.95556C18.2374 9.7981 18.3052 9.7104 18.4367 9.7104C18.4811 9.70979 18.5251 9.71792 18.5663 9.73432L18.6301 9.535C18.5827 9.51806 18.5328 9.5093 18.4826 9.50908L18.4865 9.51307ZM15.8137 9.61273C15.6963 9.54297 15.5614 9.50838 15.425 9.51307C15.1838 9.51307 15.0264 9.62868 15.0264 9.81803C15.0264 9.9735 15.142 10.0692 15.3552 10.0991L15.4549 10.113C15.5685 10.129 15.6223 10.1589 15.6223 10.2127C15.6223 10.2864 15.5466 10.3283 15.4051 10.3283C15.2912 10.3316 15.1796 10.2965 15.0882 10.2286L14.9885 10.3901C15.1092 10.4744 15.2539 10.5177 15.4011 10.5137C15.6761 10.5137 15.8356 10.3841 15.8356 10.2027C15.8356 10.0213 15.71 9.94759 15.5027 9.91769L15.4031 9.90374C15.3134 9.89178 15.2416 9.87384 15.2416 9.81006C15.2416 9.74627 15.3094 9.69844 15.423 9.69844C15.528 9.69966 15.631 9.72779 15.722 9.78016L15.8137 9.61273ZM21.3657 9.51307C21.3152 9.51158 21.2652 9.52376 21.221 9.54832C21.1768 9.57287 21.14 9.6089 21.1146 9.65259V9.53699H20.9093V10.4897H21.1166V9.95556C21.1166 9.7981 21.1843 9.7104 21.3159 9.7104C21.3602 9.70979 21.4042 9.71792 21.4454 9.73432L21.5092 9.535C21.4619 9.51806 21.412 9.5093 21.3617 9.50908L21.3657 9.51307ZM18.6948 10.0114C18.6924 10.0783 18.7039 10.1451 18.7287 10.2073C18.7535 10.2695 18.791 10.3259 18.8389 10.3728C18.8867 10.4197 18.9438 10.4561 19.0065 10.4797C19.0693 10.5032 19.1362 10.5135 19.2031 10.5097C19.3276 10.516 19.4499 10.4755 19.5459 10.3961L19.4463 10.2286C19.3746 10.2833 19.2872 10.3133 19.1971 10.3143C19.1205 10.3081 19.049 10.2733 18.9969 10.2168C18.9448 10.1603 18.9158 10.0862 18.9158 10.0094C18.9158 9.9325 18.9448 9.85845 18.9969 9.80194C19.049 9.74543 19.1205 9.71062 19.1971 9.70442C19.2872 9.70542 19.3746 9.73548 19.4463 9.79012L19.5459 9.6227C19.4499 9.54329 19.3276 9.50275 19.2031 9.50908C19.1362 9.50529 19.0693 9.51551 19.0065 9.53908C18.9438 9.56264 18.8867 9.59904 18.8389 9.64595C18.791 9.69285 18.7535 9.74922 18.7287 9.81146C18.7039 9.8737 18.6924 9.94043 18.6948 10.0074V10.0114ZM20.6362 10.0114V9.53699H20.4289V9.65259C20.3937 9.6073 20.3482 9.57102 20.2963 9.54676C20.2443 9.52251 20.1873 9.51096 20.1299 9.51307C19.9978 9.51307 19.871 9.56557 19.7776 9.65902C19.6841 9.75247 19.6316 9.87921 19.6316 10.0114C19.6316 10.1435 19.6841 10.2703 19.7776 10.3637C19.871 10.4572 19.9978 10.5097 20.1299 10.5097C20.1873 10.5118 20.2443 10.5002 20.2963 10.476C20.3482 10.4517 20.3937 10.4154 20.4289 10.3701V10.4857H20.6362V10.0114ZM19.8648 10.0114C19.8681 9.95529 19.8878 9.9014 19.9213 9.85633C19.9549 9.81127 20.0009 9.777 20.0536 9.75775C20.1064 9.73849 20.1637 9.73509 20.2183 9.74796C20.273 9.76083 20.3228 9.78942 20.3614 9.83019C20.4 9.87097 20.4259 9.92216 20.4358 9.97745C20.4458 10.0328 20.4393 10.0897 20.4172 10.1414C20.3952 10.1931 20.3585 10.2372 20.3117 10.2682C20.2649 10.2993 20.21 10.316 20.1538 10.3163C20.1144 10.3168 20.0753 10.3092 20.0389 10.2938C20.0026 10.2784 19.9698 10.2557 19.9426 10.2271C19.9155 10.1984 19.8946 10.1645 19.8812 10.1274C19.8678 10.0902 19.8622 10.0507 19.8648 10.0114V10.0114ZM17.3634 9.51307C17.2312 9.51492 17.1052 9.56919 17.0131 9.66395C16.9209 9.75871 16.8702 9.88619 16.8721 10.0183C16.8739 10.1505 16.9282 10.2765 17.0229 10.3687C17.1177 10.4608 17.2452 10.5115 17.3773 10.5097C17.5207 10.517 17.6617 10.4709 17.773 10.3801L17.6733 10.2266C17.5946 10.2897 17.4971 10.3248 17.3963 10.3263C17.3277 10.3322 17.2596 10.3111 17.2064 10.2676C17.1532 10.224 17.119 10.1614 17.1112 10.0931H17.8188C17.8188 10.0672 17.8188 10.0413 17.8188 10.0134C17.8188 9.71438 17.6335 9.51506 17.3664 9.51506L17.3634 9.51307ZM17.3634 9.69844C17.3944 9.69778 17.4252 9.70323 17.4542 9.7145C17.4831 9.72576 17.5095 9.74261 17.5319 9.76408C17.5543 9.78555 17.5722 9.81122 17.5847 9.83963C17.5972 9.86804 17.6039 9.89863 17.6046 9.92965H17.1063C17.1099 9.86567 17.1384 9.80565 17.1857 9.76244C17.233 9.71923 17.2954 9.69625 17.3594 9.69844H17.3634ZM22.5566 10.0134V9.1543H22.3573V9.65259C22.3221 9.6073 22.2766 9.57102 22.2247 9.54676C22.1727 9.52251 22.1157 9.51096 22.0583 9.51307C21.9262 9.51307 21.7994 9.56557 21.706 9.65902C21.6125 9.75247 21.56 9.87921 21.56 10.0114C21.56 10.1435 21.6125 10.2703 21.706 10.3637C21.7994 10.4572 21.9262 10.5097 22.0583 10.5097C22.1157 10.5118 22.1727 10.5002 22.2247 10.476C22.2766 10.4517 22.3221 10.4154 22.3573 10.3701V10.4857H22.5566V10.0134ZM22.9025 10.3512C22.9154 10.351 22.9283 10.3534 22.9403 10.3582C22.9518 10.3629 22.9622 10.3696 22.9712 10.3781C22.98 10.3867 22.9871 10.3968 22.9922 10.408C22.9972 10.4197 22.9998 10.4322 22.9998 10.4449C22.9998 10.4576 22.9972 10.4701 22.9922 10.4818C22.9871 10.4929 22.98 10.5031 22.9712 10.5117C22.9622 10.5202 22.9518 10.5269 22.9403 10.5316C22.9284 10.5369 22.9155 10.5396 22.9025 10.5396C22.8836 10.5394 22.8651 10.5339 22.8492 10.5237C22.8333 10.5134 22.8207 10.4989 22.8128 10.4818C22.8078 10.4701 22.8052 10.4576 22.8052 10.4449C22.8052 10.4322 22.8078 10.4197 22.8128 10.408C22.8178 10.3968 22.8249 10.3867 22.8337 10.3781C22.8427 10.3696 22.8531 10.3629 22.8646 10.3582C22.8776 10.353 22.8915 10.3506 22.9054 10.3512H22.9025ZM22.9025 10.5196C22.9124 10.5197 22.9223 10.5177 22.9314 10.5137C22.9399 10.5098 22.9477 10.5044 22.9543 10.4977C22.9667 10.4841 22.9737 10.4663 22.9737 10.4479C22.9737 10.4294 22.9667 10.4116 22.9543 10.398C22.9477 10.3913 22.9399 10.3859 22.9314 10.3821C22.9222 10.3781 22.9124 10.3761 22.9025 10.3761C22.8925 10.3762 22.8827 10.3782 22.8736 10.3821C22.8646 10.3858 22.8565 10.3912 22.8496 10.398C22.8372 10.4116 22.8303 10.4294 22.8303 10.4479C22.8303 10.4663 22.8372 10.4841 22.8496 10.4977C22.8565 10.5045 22.8646 10.51 22.8736 10.5137C22.8836 10.518 22.8945 10.52 22.9054 10.5196H22.9025ZM22.9084 10.401C22.9177 10.4006 22.9269 10.4034 22.9343 10.409C22.9374 10.4115 22.9398 10.4148 22.9414 10.4184C22.9429 10.422 22.9436 10.426 22.9433 10.4299C22.9435 10.4332 22.9429 10.4366 22.9417 10.4396C22.9405 10.4427 22.9387 10.4455 22.9363 10.4479C22.9306 10.4531 22.9232 10.4563 22.9154 10.4568L22.9443 10.4897H22.9214L22.8945 10.4568H22.8855V10.4897H22.8666V10.402L22.9084 10.401ZM22.8865 10.418V10.4419H22.9084C22.9123 10.4431 22.9165 10.4431 22.9204 10.4419C22.9211 10.4405 22.9215 10.439 22.9215 10.4374C22.9215 10.4359 22.9211 10.4343 22.9204 10.4329C22.9211 10.4315 22.9215 10.43 22.9215 10.4284C22.9215 10.4269 22.9211 10.4253 22.9204 10.424C22.9165 10.4228 22.9123 10.4228 22.9084 10.424L22.8865 10.418ZM21.7903 10.0134C21.7936 9.95728 21.8132 9.90339 21.8467 9.85833C21.8803 9.81326 21.9263 9.77899 21.9791 9.75974C22.0318 9.74048 22.0891 9.73708 22.1438 9.74996C22.1985 9.76283 22.2482 9.79141 22.2868 9.83219C22.3255 9.87296 22.3513 9.92415 22.3613 9.97945C22.3712 10.0347 22.3647 10.0917 22.3427 10.1434C22.3206 10.1951 22.2839 10.2392 22.2371 10.2702C22.1903 10.3013 22.1354 10.318 22.0793 10.3183C22.0398 10.3188 22.0007 10.3111 21.9643 10.2958C21.928 10.2804 21.8952 10.2577 21.868 10.2291C21.8409 10.2004 21.82 10.1665 21.8066 10.1294C21.7932 10.0922 21.7876 10.0527 21.7903 10.0134V10.0134ZM14.7912 10.0134V9.53699H14.5839V9.65259C14.5487 9.6073 14.5032 9.57102 14.4512 9.54676C14.3992 9.52251 14.3422 9.51096 14.2849 9.51307C14.1527 9.51307 14.026 9.56557 13.9326 9.65902C13.8391 9.75247 13.7866 9.87921 13.7866 10.0114C13.7866 10.1435 13.8391 10.2703 13.9326 10.3637C14.026 10.4572 14.1527 10.5097 14.2849 10.5097C14.3422 10.5118 14.3992 10.5002 14.4512 10.476C14.5032 10.4517 14.5487 10.4154 14.5839 10.3701V10.4857H14.7912V10.0134ZM14.0198 10.0134C14.0231 9.95728 14.0427 9.90339 14.0763 9.85833C14.1098 9.81326 14.1558 9.77899 14.2086 9.75974C14.2614 9.74048 14.3186 9.73708 14.3733 9.74996C14.428 9.76283 14.4777 9.79141 14.5164 9.83219C14.555 9.87296 14.5809 9.92415 14.5908 9.97945C14.6007 10.0347 14.5943 10.0917 14.5722 10.1434C14.5501 10.1951 14.5135 10.2392 14.4667 10.2702C14.4199 10.3013 14.365 10.318 14.3088 10.3183C14.2692 10.3191 14.2298 10.3116 14.1933 10.2964C14.1567 10.2812 14.1236 10.2585 14.0963 10.2298C14.0689 10.2011 14.0478 10.1671 14.0343 10.1298C14.0208 10.0926 14.0152 10.0529 14.0178 10.0134H14.0198Z" fill="#231F20"/>
<path d="M18.8854 2.27832H15.7461V7.92004H18.8854V2.27832Z" fill="#FF5F00"/>
<path d="M15.9451 5.09996C15.9445 4.55654 16.0676 4.02012 16.305 3.53131C16.5424 3.0425 16.8879 2.61412 17.3154 2.2786C16.7861 1.86264 16.1505 1.60398 15.4811 1.53219C14.8118 1.46039 14.1358 1.57835 13.5303 1.87258C12.9249 2.16681 12.4144 2.62545 12.0573 3.19608C11.7001 3.7667 11.5107 4.42629 11.5107 5.09946C11.5107 5.77263 11.7001 6.43222 12.0573 7.00285C12.4144 7.57347 12.9249 8.03211 13.5303 8.32635C14.1358 8.62058 14.8118 8.73854 15.4811 8.66674C16.1505 8.59494 16.7861 8.33628 17.3154 7.92032C16.888 7.58491 16.5426 7.15669 16.3052 6.66806C16.0678 6.17944 15.9446 5.64321 15.9451 5.09996V5.09996Z" fill="#EB001B"/>
<path d="M23.1206 5.0994C23.1206 5.77262 22.9311 6.43225 22.5739 7.00289C22.2168 7.57354 21.7062 8.03217 21.1007 8.32636C20.4951 8.62056 19.819 8.73844 19.1497 8.66654C18.4803 8.59463 17.8447 8.33585 17.3154 7.91976C17.7426 7.58405 18.0879 7.15571 18.3254 6.66706C18.5629 6.1784 18.6863 5.6422 18.6863 5.0989C18.6863 4.5556 18.5629 4.0194 18.3254 3.53074C18.0879 3.04209 17.7426 2.61375 17.3154 2.27804C17.8447 1.86195 18.4803 1.60317 19.1497 1.53127C19.819 1.45936 20.4951 1.57725 21.1007 1.87144C21.7062 2.16563 22.2168 2.62426 22.5739 3.19491C22.9311 3.76555 23.1206 4.42518 23.1206 5.0984V5.0994Z" fill="#F79E1B"/>
<path d="M22.7778 7.32214V7.20654H22.8246V7.18262H22.7061V7.20654H22.7569V7.32214H22.7778ZM23.008 7.32214V7.18262H22.9721L22.9303 7.28228L22.8884 7.18262H22.8565V7.32214H22.8824V7.2175L22.9213 7.30819H22.9482L22.9871 7.2175V7.32314L23.008 7.32214Z" fill="#F79E1B"/>
<path d="M17.6913 14.3338C17.6784 15.3507 18.5975 15.9181 19.2899 16.2555C20.0014 16.6017 20.2403 16.8237 20.2376 17.1332C20.2321 17.6071 19.6701 17.8161 19.144 17.8243C18.2262 17.8386 17.6927 17.5765 17.2684 17.3783L16.9378 18.9253C17.3634 19.1215 18.1515 19.2926 18.9688 19.3C20.8872 19.3 22.1423 18.3531 22.1491 16.8848C22.1566 15.0214 19.5716 14.9182 19.5893 14.0853C19.5954 13.8328 19.8364 13.5633 20.3645 13.4948C20.6259 13.4601 21.3474 13.4337 22.1654 13.8104L22.4865 12.3136C22.0466 12.1534 21.4811 12 20.7773 12C18.9715 12 17.7015 12.9599 17.6913 14.3338ZM25.5717 12.129C25.2215 12.129 24.9262 12.3333 24.7945 12.6469L22.0541 19.1901H23.9711L24.3526 18.1359H26.6952L26.9165 19.1901H28.6061L27.1317 12.129H25.5717ZM25.8398 14.0365L26.3931 16.6879H24.878L25.8398 14.0365ZM15.367 12.129L13.856 19.1901H15.6827L17.193 12.129H15.367ZM12.6647 12.129L10.7633 16.935L9.99417 12.8485C9.90389 12.3924 9.54751 12.129 9.15176 12.129H6.04344L6 12.334C6.63809 12.4725 7.36307 12.6958 7.80226 12.9347C8.07108 13.0807 8.14779 13.2083 8.23603 13.5552L9.69278 19.1901H11.6233L14.583 12.129H12.6647Z" fill="url(#paint0_linear)"/>
<defs>
<linearGradient id="paint0_linear" x1="16.393" y1="19.4465" x2="16.6042" y2="11.9492" gradientUnits="userSpaceOnUse">
<stop stop-color="#222357"/>
<stop offset="1" stop-color="#254AA5"/>
</linearGradient>
</defs>
</svg>
